# xmcd CD database file
#
# Track frame offsets:
#	150
#	23474
#	42402
#	60708
#	81336
#	107504
#	123899
#	143055
#	163862
#	184091
#	210745
#
# Disc length: 2975 seconds
#
# Revision: 1
# Processed by: cddbd v1.5.2PL0 Copyright (c) Steve Scherf et al.
# Submitted via: CDex 1.51
#
DISCID=900b9d0b
DTITLE=Nevermore - Enemies Of Reality
DYEAR=2003
DGENRE=Metal
TTITLE0=Enemies Of Reality
TTITLE1=Ambivalent
TTITLE2=Never Purify
TTITLE3=Tomorrow Turned Into Yesterday
TTITLE4=I, Voyager
TTITLE5=Create The Infinite
TTITLE6=Who Decides
TTITLE7=Noumenon
TTITLE8=Seed Awakening
TTITLE9=All The Cowards Hide
TTITLE10=Chances Three
EXTD=YEAR: 2003
EXTT0=
EXTT1=
EXTT2=
EXTT3=
EXTT4=
EXTT5=
EXTT6=
EXTT7=
EXTT8=
EXTT9=
EXTT10=
PLAYORDER=
